<svg height="14" width="14" xmlns="http://www.w3.org/2000/svg" style=""><rect id="backgroundrect" width="100%" height="100%" x="0" y="0" fill="none" stroke="none" style="" class=""/><title/><g class="currentLayer" style=""><title>Layer 1</title><path fill="#ffffff" fill-opacity="1" stroke="none" stroke-opacity="1" stroke-width="1" stroke-dasharray="none" stroke-linejoin="miter" stroke-linecap="butt" stroke-dashoffset="" fill-rule="nonzero" opacity="1" marker-start="" marker-mid="" marker-end="" d="M10.734214708209038,2.1525700986385345 C10.734214708209038,1.3688955008983612 11.33242504298687,0.7341192662715912 12.070957109332085,0.7341192662715912 C12.809491083025932,0.7341192662715912 13.407701417803764,1.3688955008983612 13.407701417803764,2.1525700986385345 C13.407701417803764,2.9362445771694183 12.809491083025932,3.571021169424057 12.070957109332085,3.571021169424057 C11.33242504298687,3.571021169424057 10.734214708209038,2.9362445771694183 10.734214708209038,2.1525700986385345 z" id="svg_6" class=""/><path fill="#ffffff" fill-opacity="1" stroke="none" stroke-opacity="1" stroke-width="1" stroke-dasharray="none" stroke-linejoin="miter" stroke-linecap="butt" stroke-dashoffset="" fill-rule="nonzero" opacity="1" marker-start="" marker-mid="" marker-end="" d="M1,9.5 C1,7.566298484802246 3.6850829124450684,6 7,6 C10.31491756439209,6 13,7.566298484802246 13,9.5 C13,11.433701515197754 10.31491756439209,13 7,13 C3.6850829124450684,13 1,11.433701515197754 1,9.5 z" id="svg_5" class=""/><path d="M11,5.11328125 a2.9467599391937256,2.9467599391937256 0 0 0 -1.347659945487976,0.32519999146461487 A10.356639862060547,10.356639862060547 0 0 0 8,5.174131393432617 V2.3330111503601074 l2.105289936065674,0.39037999510765076 a1.9993799924850464,1.9993799924850464 0 1 0 0.43182000517845154,-1.9638099670410156 L6.707459926605225,0.013121247291564941 A0.5985299944877625,0.5985299944877625 0 0 0 6,0.5034213066101074 v4.671999931335449 a10.340149879455566,10.340149879455566 0 0 0 -1.7060500383377075,0.2757599949836731 A2.9595799446105957,2.9595799446105957 0 0 0 3,5.154781341552734 a3.0032799243927,3.0032799243927 0 0 0 -3,3 a2.9282500743865967,2.9282500743865967 0 0 0 0.09081999957561493,0.7211899757385254 A3.06030011177063,3.06030011177063 0 0 0 0,9.61328125 C0,12.13672161102295 3.075200080871582,14.11328125 7,14.11328125 s7,-1.9765599966049194 7,-4.5 a3.023159980773926,3.023159980773926 0 0 0 -0.09668000042438507,-0.7534199953079224 A2.9303600788116455,2.9303600788116455 0 0 0 14,8.11328125 A3.0032799243927,3.0032799243927 0 0 0 11,5.11328125 zm1,-4 a1,1 0 1 1 -1,1 A1.0010000467300415,1.0010000467300415 0 0 1 12,1.11328125 zm-0.08008000254631042,8.09570026397705 A1.1410800218582153,1.1410800218582153 0 0 1 12,9.61328125 c0,1.1826200485229492 -2.0537099838256836,2.5 -5,2.5 s-5,-1.3173799514770508 -5,-2.5 a1.111299991607666,1.111299991607666 0 0 1 0.07519999891519547,-0.39355000853538513 L2.2070000171661377,8.865281105041504 l-0.1357399970293045,-0.3529999852180481 A0.9806699752807617,0.9806699752807617 0 0 1 2,8.154781341552734 a1.0010000467300415,1.0010000467300415 0 0 1 1,-1 A0.9900000095367432,0.9900000095367432 0 0 1 3.5771498680114746,7.343280792236328 L3.982419967651367,7.633790969848633 L4.459000110626221,7.484371185302734 a9.031000137329102,9.031000137329102 0 0 1 5.048830032348633,-0.009279999881982803 l0.48730000853538513,0.15038999915122986 l0.4081999957561493,-0.30614998936653137 A0.9915500283241272,0.9915500283241272 0 0 1 12,8.11328125 a0.9790599942207336,0.9790599942207336 0 0 1 -0.07422000169754028,0.36963000893592834 l-0.14452999830245972,0.3618200123310089 z" fill="#990000" id="svg_3" class="" fill-opacity="1" opacity="1" stroke="none"/><path fill="#990000" fill-opacity="1" stroke="none" stroke-opacity="1" style="color: rgb(35, 31, 32);" stroke-width="1" stroke-dasharray="none" stroke-linejoin="miter" stroke-linecap="butt" stroke-dashoffset="" fill-rule="nonzero" opacity="1" marker-start="" marker-mid="" marker-end="" id="svg_4" d="M1.9197269678115845,6.265305995941162 " class=""/><circle cx="5" cy="9.11328125" fill="#990000" r="1" id="svg_1" class="" fill-opacity="1" opacity="1"/><circle cx="9" cy="9.11328125" fill="#990000" r="1" id="svg_2" class="" fill-opacity="1"/></g></svg>